<?xml version="1.0" encoding="UTF-8" ?>
<!DOCTYPE svg PUBLIC "-//W3C//DTD SVG 1.1//EN" "http://www.w3.org/Graphics/SVG/1.1/DTD/svg11.dtd">
<svg width="217pt" height="131pt" viewBox="0 0 217 131" version="1.1" xmlns="http://www.w3.org/2000/svg">
<g id="#ffffffff">
<path fill="#ffffff" opacity="1.00" d=" M 12.53 77.34 C 11.49 74.12 14.51 72.08 17.17 73.91 C 19.12 77.44 14.96 78.10 12.53 77.34 Z" />
</g>
<g id="#dc9038ff">
<path fill="#dc9038" opacity="1.00" d=" M 113.02 21.84 C 115.34 21.26 117.66 20.48 120.08 20.45 C 121.37 22.03 121.78 24.06 122.44 25.94 C 124.11 31.40 126.20 36.74 127.63 42.27 C 119.81 45.40 111.35 46.62 103.30 49.11 C 99.33 49.81 95.48 51.02 91.68 52.32 C 89.38 52.88 86.94 53.60 84.66 52.59 C 84.40 51.29 84.11 50.00 83.78 48.71 C 82.07 43.43 80.03 38.25 78.56 32.90 C 77.77 31.16 79.69 30.49 80.94 30.22 C 91.61 27.34 102.33 24.64 113.02 21.84 M 119.19 25.16 C 113.77 29.26 109.37 34.65 103.96 38.71 C 96.00 38.06 88.36 35.09 80.35 34.75 C 83.07 38.05 88.02 37.30 91.76 38.52 C 90.04 41.88 88.15 45.22 87.38 48.95 C 84.39 50.83 90.20 51.45 88.17 48.87 L 89.19 48.67 C 90.84 45.63 92.03 42.36 93.41 39.19 C 97.29 39.50 101.07 40.44 104.90 41.11 C 107.31 38.87 109.47 36.33 112.16 34.41 C 117.34 35.37 120.84 41.38 126.44 41.06 C 122.95 37.44 118.20 35.48 114.10 32.67 C 116.53 30.16 119.25 27.88 121.20 24.95 C 120.70 25.00 119.69 25.11 119.19 25.16 Z" />
<path fill="#dc9038" opacity="1.00" d=" M 128.70 47.02 C 130.03 48.09 131.33 49.17 132.57 50.34 C 134.07 51.83 135.68 53.29 136.68 55.18 C 135.68 57.46 133.44 58.93 131.73 60.66 C 128.59 60.98 130.10 56.66 129.69 54.74 L 129.70 53.75 C 129.08 53.69 127.83 53.55 127.21 53.48 C 127.32 51.25 127.74 49.05 128.70 47.02 Z" />
<path fill="#dc9038" opacity="1.00" d=" M 92.24 60.71 C 93.17 60.24 94.13 59.81 95.10 59.43 C 97.87 61.07 100.21 63.35 102.61 65.48 L 103.11 66.01 C 103.06 70.05 103.00 74.09 103.43 78.12 C 103.87 81.99 103.86 85.89 103.71 89.78 L 102.45 89.57 C 97.34 85.45 92.66 80.83 87.47 76.80 C 87.48 72.14 87.32 67.48 86.95 62.83 C 87.37 63.28 88.21 64.19 88.63 64.64 C 89.83 63.59 91.04 62.55 92.24 61.51 C 93.18 64.11 94.02 66.74 94.80 69.39 C 92.36 69.72 89.93 70.09 87.52 70.57 C 90.09 70.64 92.66 70.54 95.23 70.45 C 96.04 72.80 96.82 75.17 97.53 77.56 C 99.21 77.90 100.89 78.23 102.58 78.45 C 101.32 77.92 100.00 77.51 98.67 77.15 C 96.08 71.84 95.29 65.82 92.24 60.71 Z" />
<path fill="#dc9038" opacity="1.00" d=" M 115.69 69.47 C 117.33 67.06 118.85 64.51 121.06 62.56 C 122.59 62.77 124.29 63.32 124.91 64.90 C 122.13 67.11 119.21 70.81 115.27 70.10 L 115.69 69.47 Z" />
<path fill="#dc9038" opacity="1.00" d=" M 107.32 69.37 C 110.39 72.74 114.19 75.30 117.41 78.50 C 117.83 79.64 116.65 80.29 116.02 81.02 C 113.16 83.65 110.26 86.23 107.31 88.75 L 106.31 89.57 C 106.34 86.36 106.39 83.14 106.54 79.93 C 109.35 80.93 112.31 81.42 115.29 81.66 C 113.34 78.68 109.69 78.78 106.56 78.55 L 106.57 78.44 C 106.64 75.40 106.89 72.37 107.32 69.37 Z" />
</g>
<g id="#ecc496ff">
<path fill="#ecc496" opacity="1.00" d=" M 130.35 31.46 C 136.94 28.14 143.27 24.21 150.10 21.41 L 151.40 21.67 L 151.60 22.92 C 149.09 26.09 147.42 29.93 144.78 32.92 C 140.10 34.10 135.18 33.23 130.40 33.73 C 130.39 33.16 130.36 32.02 130.35 31.46 Z" />
<path fill="#ecc496" opacity="1.00" d=" M 165.27 26.42 C 169.61 24.90 174.07 23.77 178.46 22.40 C 179.60 24.66 180.45 27.05 180.77 29.56 C 176.33 30.59 172.09 32.58 167.47 32.69 C 166.74 30.60 166.00 28.51 165.27 26.42 Z" />
<path fill="#ecc496" opacity="1.00" d=" M 152.20 23.28 C 154.26 25.40 156.06 27.81 156.83 30.73 C 154.16 30.54 151.66 29.60 149.39 28.21 C 150.32 26.57 151.26 24.92 152.20 23.28 Z" />
<path fill="#ecc496" opacity="1.00" d=" M 145.70 33.44 C 146.71 32.03 147.73 30.63 148.76 29.23 C 151.62 30.20 154.50 31.10 157.36 32.08 C 155.03 34.37 151.96 35.61 149.10 37.09 C 145.39 38.95 141.86 41.27 137.80 42.33 C 138.22 39.79 138.54 37.24 138.79 34.68 C 141.08 34.21 143.38 33.80 145.70 33.44 Z" />
<path fill="#ecc496" opacity="1.00" d=" M 131.64 34.50 C 133.63 34.45 135.61 34.42 137.60 34.40 C 137.58 37.08 137.44 39.75 137.12 42.40 C 134.15 40.74 132.82 37.51 131.64 34.50 Z" />
<path fill="#ecc496" opacity="1.00" d=" M 164.02 37.45 C 166.92 38.49 169.85 39.48 172.79 40.45 C 171.46 44.76 169.76 48.97 168.05 53.14 C 165.15 54.38 162.05 52.28 159.23 51.54 C 159.78 46.55 162.18 42.05 164.02 37.45 Z" />
<path fill="#ecc496" opacity="1.00" d=" M 124.35 45.23 C 125.79 43.68 127.68 44.67 128.99 45.82 C 126.33 50.01 124.38 54.62 122.94 59.36 C 117.64 61.12 111.94 61.17 106.51 62.45 C 106.56 60.75 106.71 59.05 106.90 57.36 C 113.12 53.93 118.50 49.23 124.35 45.23 Z" />
<path fill="#ecc496" opacity="1.00" d=" M 132.57 50.34 C 139.68 49.72 146.82 48.82 153.94 48.79 C 155.85 52.35 155.24 56.93 155.46 60.91 C 152.77 59.31 150.53 57.04 149.11 54.23 C 147.06 55.36 145.29 57.16 142.99 57.73 C 141.26 57.47 139.63 56.81 137.97 56.30 C 139.59 57.16 141.20 58.22 143.07 58.40 C 144.99 57.78 146.50 56.34 148.12 55.20 C 150.60 57.32 153.06 59.50 154.95 62.19 C 147.52 62.65 140.11 63.33 132.67 63.55 C 132.44 62.83 131.97 61.38 131.73 60.66 C 133.44 58.93 135.68 57.46 136.68 55.18 C 135.68 53.29 134.07 51.83 132.57 50.34 Z" />
<path fill="#ecc496" opacity="1.00" d=" M 125.54 54.01 C 126.92 54.25 128.30 54.49 129.69 54.74 C 130.10 56.66 128.59 60.98 131.73 60.66 L 132.06 62.24 C 130.49 62.59 128.92 62.96 127.35 63.36 C 127.35 63.90 127.34 64.99 127.33 65.53 C 131.11 67.10 135.16 68.12 138.67 70.25 C 139.00 74.26 135.99 77.50 133.90 80.62 C 127.19 77.47 120.06 75.25 113.55 71.67 C 114.13 71.15 114.70 70.63 115.27 70.10 C 119.21 70.81 122.13 67.11 124.91 64.90 C 124.29 63.32 122.59 62.77 121.06 62.56 C 118.85 64.51 117.33 67.06 115.69 69.47 C 115.20 66.82 115.17 64.12 115.31 61.44 C 117.82 61.02 120.48 60.97 122.86 59.95 C 123.90 58.04 124.63 55.98 125.54 54.01 Z" />
<path fill="#ecc496" opacity="1.00" d=" M 106.54 62.79 C 109.23 62.44 111.90 62.01 114.56 61.47 C 114.48 64.62 115.75 68.59 112.70 70.74 C 110.86 68.68 108.82 66.83 106.92 64.84 C 106.83 64.33 106.63 63.30 106.54 62.79 Z" />
</g>
<g id="#103555ff">
<path fill="#103555" opacity="1.00" d=" M 11.25 54.99 C 10.54 51.15 14.51 48.37 18.02 48.74 C 39.94 48.72 61.86 48.78 83.78 48.71 C 84.11 50.00 84.40 51.29 84.66 52.59 C 65.10 52.05 45.52 52.53 25.95 52.34 C 23.29 52.05 19.78 53.06 19.57 56.20 C 19.26 67.80 19.58 79.42 19.43 91.03 C 19.56 92.87 19.16 95.07 20.60 96.51 C 21.89 98.12 24.17 97.67 25.97 97.85 C 49.67 97.81 73.38 97.84 97.09 97.83 C 98.94 97.93 100.69 97.35 102.25 96.39 C 103.20 94.54 103.34 92.45 103.55 90.42 C 104.36 90.35 105.97 90.22 106.78 90.15 C 106.74 92.90 106.70 95.65 106.64 98.40 L 106.62 99.02 C 105.45 99.80 104.30 100.58 103.14 101.37 C 88.98 101.49 74.82 101.36 60.66 101.45 C 60.28 101.45 59.54 101.45 59.16 101.45 C 45.09 101.35 31.02 101.49 16.94 101.39 C 14.63 101.65 13.00 99.86 11.42 98.49 C 11.06 84.00 11.36 69.49 11.25 54.99 M 12.53 77.34 C 14.96 78.10 19.12 77.44 17.17 73.91 C 14.51 72.08 11.49 74.12 12.53 77.34 Z" />
<path fill="#103555" opacity="1.00" d=" M 88.17 48.87 C 90.20 51.45 84.39 50.83 87.38 48.95 L 88.17 48.87 Z" />
<path fill="#103555" opacity="1.00" d=" M 91.68 52.32 C 95.48 51.02 99.33 49.81 103.30 49.11 C 106.80 50.17 107.73 54.19 106.90 57.36 C 106.71 59.05 106.56 60.75 106.51 62.45 L 106.54 62.79 C 106.63 63.30 106.83 64.33 106.92 64.84 C 107.08 65.72 107.41 67.47 107.58 68.35 C 106.94 68.32 105.66 68.25 105.02 68.21 L 104.44 68.02 C 104.11 67.51 103.44 66.51 103.11 66.01 L 102.61 65.48 C 102.62 61.89 103.00 58.26 102.42 54.70 C 100.15 51.08 95.21 52.65 91.68 52.32 Z" />
<path fill="#103555" opacity="1.00" d=" M 103.43 78.12 C 104.47 78.23 105.52 78.33 106.57 78.44 L 106.56 78.55 L 106.54 79.93 C 106.39 83.14 106.34 86.36 106.31 89.57 L 106.24 89.63 C 105.39 89.72 104.55 89.77 103.71 89.78 C 103.86 85.89 103.87 81.99 103.43 78.12 Z" />
</g>
<g id="#d7801cff">
<path fill="#d7801c" opacity="1.00" d=" M 35.01 61.86 C 49.32 61.35 63.68 61.93 78.01 61.75 C 81.00 61.83 84.21 61.33 86.95 62.83 C 87.32 67.48 87.48 72.14 87.47 76.80 C 87.35 80.87 87.62 84.96 87.15 89.02 C 86.45 90.75 84.52 90.38 83.02 90.47 C 66.87 90.39 50.73 90.28 34.58 90.35 C 32.83 84.74 34.04 78.80 33.71 73.03 C 33.97 69.33 32.90 65.16 35.01 61.86 M 35.79 67.12 C 38.09 71.01 43.33 71.64 47.01 73.86 C 45.10 79.32 39.17 82.06 36.86 87.28 C 41.87 84.44 44.80 79.12 48.88 75.17 C 52.11 76.46 55.15 78.12 58.22 79.75 C 59.56 80.40 61.16 81.33 62.62 80.41 C 66.12 78.70 69.45 76.64 73.10 75.23 C 76.97 79.65 80.63 84.35 85.08 88.22 C 83.76 82.32 76.44 79.83 75.15 74.06 C 78.57 71.95 82.65 70.74 85.23 67.46 C 77.04 71.28 69.07 75.58 61.03 79.70 C 52.70 75.34 44.37 70.95 35.79 67.12 Z" />
<path fill="#d7801c" opacity="1.00" d=" M 103.11 66.01 C 103.44 66.51 104.11 67.51 104.44 68.02 L 105.02 68.21 C 105.78 68.60 106.55 68.99 107.32 69.37 C 106.89 72.37 106.64 75.40 106.57 78.44 C 105.52 78.33 104.47 78.23 103.43 78.12 C 103.00 74.09 103.06 70.05 103.11 66.01 Z" />
</g>
<g id="#99a3baff">
<path fill="#99a3ba" opacity="1.00" d=" M 166.09 74.25 C 171.45 65.62 185.50 67.52 189.90 76.08 C 191.42 78.67 191.26 81.76 191.30 84.65 C 195.18 86.39 198.72 89.57 199.29 94.00 C 199.59 99.70 194.69 104.92 189.05 105.36 C 183.42 105.71 177.76 105.51 172.12 105.43 C 172.52 102.57 173.30 99.55 172.29 96.74 C 171.14 94.30 168.76 92.81 166.82 91.05 C 167.16 85.80 163.74 80.82 158.66 79.39 C 154.33 77.59 149.75 79.17 145.81 81.17 C 146.21 76.73 149.74 73.30 153.76 71.83 C 158.03 70.60 162.46 71.91 166.09 74.25 Z" />
<path fill="#99a3ba" opacity="1.00" d=" M 146.84 86.61 C 147.85 79.83 157.24 79.69 161.29 83.73 C 164.10 85.90 164.02 89.66 164.27 92.85 C 166.07 94.32 168.59 95.08 169.64 97.32 C 172.15 101.35 168.35 106.73 164.00 107.19 C 159.46 107.70 154.89 107.31 150.34 107.38 C 150.25 111.06 150.25 114.73 150.33 118.41 C 153.15 119.16 156.01 119.90 158.96 119.80 C 173.32 119.71 187.68 119.82 202.03 119.73 C 203.97 119.74 205.89 120.03 207.81 120.32 C 207.72 120.85 207.55 121.93 207.46 122.47 C 190.32 122.80 173.16 122.42 156.02 122.66 C 153.29 125.30 149.34 124.72 145.90 124.57 C 144.38 124.56 143.29 123.36 142.06 122.65 C 117.05 122.57 92.02 122.53 67.01 122.66 C 64.26 125.23 60.37 124.75 56.93 124.58 C 55.39 124.57 54.26 123.39 53.03 122.65 C 44.76 122.39 36.48 122.86 28.22 122.45 C 25.68 120.64 29.32 119.58 30.93 119.76 C 40.16 119.24 49.66 121.03 58.65 118.39 C 58.97 112.76 58.03 106.99 59.16 101.45 C 59.54 101.45 60.28 101.45 60.66 101.45 C 61.94 107.01 60.95 112.78 61.33 118.43 C 63.83 119.05 66.35 119.79 68.96 119.78 C 92.62 119.76 116.28 119.76 139.94 119.78 C 142.57 119.81 145.11 119.08 147.63 118.41 C 147.65 114.74 147.65 111.06 147.60 107.39 C 142.40 107.30 137.17 107.68 131.98 107.23 C 128.43 106.89 125.02 103.74 125.42 99.98 C 125.17 96.42 128.57 94.47 131.27 93.04 C 131.41 90.39 130.87 87.16 133.45 85.45 C 137.18 81.44 143.29 83.37 146.84 86.61 Z" />
</g>
</svg>
